<?xml version="1.0" encoding="iso-8859-1"?>
<!-- Generator: Adobe Illustrator 19.0.0, SVG Export Plug-In . SVG Version: 6.00 Build 0)  -->
<svg version="1.1" id="Capa_1" fill="white" xmlns="http://www.w3.org/2000/svg" xmlns:xlink="http://www.w3.org/1999/xlink" x="0px" y="0px"
	 viewBox="0 0 489.2 489.2" style="enable-background:new 0 0 489.2 489.2;" xml:space="preserve">
<g>
	<g>
		<g>
			<path d="M39.5,377.35h160.9v44.1H169c-5.2,0-9.5,4.2-9.5,9.5v27.5c0,5.2,4.2,9.5,9.5,9.5h151.2c5.2,0,9.5-4.2,9.5-9.5v-27.5
				c0-5.2-4.2-9.5-9.5-9.5h-31.4v-44.1h160.9c21.8,0,39.5-17.7,39.5-39.5V60.75c0-21.8-17.7-39.5-39.5-39.5H39.5
				C17.7,21.25,0,38.95,0,60.75v277.1C0,359.65,17.7,377.35,39.5,377.35z M53.9,75.15h381.4v248H53.9V75.15z M277.1,254.75
				l-32.5,32.5l-32.5-32.5c7.8-9.3,19.4-15.3,32.5-15.3C257.7,239.55,269.3,245.45,277.1,254.75z M320.8,211.15l-22.6,22.6
				c-14.3-14.3-33.3-22.2-53.6-22.2c-20.2,0-39.3,7.9-53.6,22.2l-22.6-22.6C210.4,169.15,278.8,169.15,320.8,211.15z M363.1,168.85
				l-22.6,22.6c-52.9-52.9-138.9-52.9-191.8,0l-22.6-22.6C191.5,103.45,297.7,103.45,363.1,168.85z"/>
		</g>
	</g>
</g>
<g>
</g>
<g>
</g>
<g>
</g>
<g>
</g>
<g>
</g>
<g>
</g>
<g>
</g>
<g>
</g>
<g>
</g>
<g>
</g>
<g>
</g>
<g>
</g>
<g>
</g>
<g>
</g>
<g>
</g>
</svg>
