<?xml version="1.0" encoding="iso-8859-1"?>
<!-- Generator: Adobe Illustrator 18.0.0, SVG Export Plug-In . SVG Version: 6.00 Build 0)  -->
<!DOCTYPE svg PUBLIC "-//W3C//DTD SVG 1.1//EN" "http://www.w3.org/Graphics/SVG/1.1/DTD/svg11.dtd">
<svg version="1.1" id="Capa_1" xmlns="http://www.w3.org/2000/svg" xmlns:xlink="http://www.w3.org/1999/xlink" x="0px" y="0px"
	 viewBox="0 0 60 60" style="enable-background:new 0 0 60 60;" xml:space="preserve">
<g>
	<path d="M56.985,56.293l-6.797-6.797l6.483-3.241l-17.637-6.498l6.499,17.637l3.241-6.484l6.797,6.797
		C55.767,57.902,56.022,58,56.278,58s0.512-0.098,0.707-0.293C57.376,57.316,57.376,56.684,56.985,56.293z M42.409,43.131
		l9.232,3.401l-3.887,1.944l-1.944,3.888L42.409,43.131z"/>
	<path d="M38.722,48h-25c-0.552,0-1-0.447-1-1s0.448-1,1-1h24.416l-2.211-6H13.722c-0.552,0-1-0.447-1-1s0.448-1,1-1H35.19
		l-1.218-3.306l15.75,5.803V14.586L35.136,0H2.722v60h40.575l-4.432-12.029C38.816,47.979,38.772,48,38.722,48z M33.722,2l14,14h-14
		V2z M13.722,14h10c0.552,0,1,0.447,1,1s-0.448,1-1,1h-10c-0.552,0-1-0.447-1-1S13.169,14,13.722,14z M13.722,22h25
		c0.552,0,1,0.447,1,1s-0.448,1-1,1h-25c-0.552,0-1-0.447-1-1S13.169,22,13.722,22z M13.722,30h25c0.552,0,1,0.447,1,1s-0.448,1-1,1
		h-25c-0.552,0-1-0.447-1-1S13.169,30,13.722,30z"/>
</g>
<g>
</g>
<g>
</g>
<g>
</g>
<g>
</g>
<g>
</g>
<g>
</g>
<g>
</g>
<g>
</g>
<g>
</g>
<g>
</g>
<g>
</g>
<g>
</g>
<g>
</g>
<g>
</g>
<g>
</g>
</svg>
