<?xml version="1.0" encoding="iso-8859-1"?>
<!-- Generator: Adobe Illustrator 19.0.0, SVG Export Plug-In . SVG Version: 6.00 Build 0)  -->
<svg version="1.1" id="Layer_1" fill="white" xmlns="http://www.w3.org/2000/svg" xmlns:xlink="http://www.w3.org/1999/xlink" x="0px" y="0px"
	 viewBox="0 0 512 512" style="enable-background:new 0 0 512 512;" xml:space="preserve">
<g>
	<g>
		<g>
			<path d="M0,0v512h512V0H0z M469.333,469.333H42.667V42.667h426.667V469.333z"/>
			<path d="M298.667,128h55.163l-70.248,70.248c-8.331,8.331-8.331,21.839,0,30.17s21.839,8.331,30.17,0L384,158.17v55.163
				c0,11.782,9.551,21.333,21.333,21.333c11.782,0,21.333-9.551,21.333-21.333V106.668c0-0.703-0.037-1.406-0.106-2.107
				c-0.031-0.315-0.09-0.621-0.135-0.932c-0.054-0.378-0.098-0.756-0.173-1.13c-0.071-0.358-0.169-0.704-0.258-1.055
				c-0.081-0.324-0.152-0.649-0.249-0.969c-0.104-0.344-0.233-0.677-0.354-1.013c-0.115-0.32-0.22-0.642-0.35-0.957
				c-0.13-0.314-0.283-0.616-0.428-0.922c-0.153-0.325-0.297-0.652-0.467-0.97c-0.157-0.294-0.337-0.573-0.507-0.859
				c-0.186-0.312-0.362-0.627-0.565-0.931c-0.211-0.315-0.446-0.612-0.673-0.915c-0.19-0.254-0.367-0.515-0.57-0.762
				c-0.443-0.539-0.909-1.058-1.402-1.551c-0.004-0.004-0.007-0.008-0.011-0.012c-0.004-0.004-0.008-0.006-0.011-0.01
				c-0.494-0.493-1.012-0.96-1.552-1.403c-0.247-0.203-0.507-0.379-0.761-0.569c-0.303-0.227-0.6-0.462-0.915-0.673
				c-0.304-0.203-0.619-0.379-0.93-0.565c-0.286-0.171-0.565-0.35-0.86-0.508c-0.317-0.17-0.643-0.313-0.967-0.466
				c-0.308-0.145-0.61-0.299-0.925-0.43c-0.314-0.13-0.634-0.234-0.952-0.349c-0.338-0.122-0.672-0.251-1.018-0.356
				c-0.318-0.096-0.641-0.167-0.963-0.248c-0.353-0.089-0.702-0.188-1.061-0.259c-0.372-0.074-0.747-0.117-1.122-0.171
				c-0.314-0.045-0.623-0.105-0.941-0.136c-0.7-0.069-1.402-0.106-2.105-0.106H298.667c-11.782,0-21.333,9.551-21.333,21.333
				C277.333,118.449,286.885,128,298.667,128z"/>
			<path d="M85.44,407.438c0.031,0.318,0.091,0.627,0.136,0.941c0.054,0.375,0.097,0.75,0.171,1.122
				c0.071,0.36,0.17,0.708,0.259,1.061c0.081,0.322,0.151,0.645,0.248,0.963c0.105,0.346,0.234,0.68,0.356,1.018
				c0.114,0.318,0.219,0.639,0.349,0.952c0.131,0.315,0.284,0.618,0.43,0.925c0.153,0.324,0.296,0.65,0.466,0.967
				c0.158,0.294,0.337,0.574,0.508,0.86c0.186,0.311,0.362,0.627,0.565,0.93c0.211,0.315,0.446,0.612,0.673,0.915
				c0.19,0.254,0.366,0.514,0.569,0.761c0.443,0.54,0.91,1.059,1.403,1.552c0.004,0.004,0.006,0.008,0.01,0.011
				c0.004,0.004,0.008,0.007,0.012,0.011c0.493,0.492,1.012,0.959,1.551,1.402c0.247,0.203,0.508,0.379,0.762,0.57
				c0.303,0.227,0.6,0.462,0.915,0.673c0.304,0.203,0.619,0.379,0.931,0.565c0.286,0.171,0.565,0.35,0.859,0.507
				c0.318,0.17,0.645,0.314,0.97,0.467c0.306,0.145,0.608,0.298,0.922,0.428c0.315,0.13,0.637,0.236,0.957,0.35
				c0.337,0.121,0.669,0.25,1.013,0.354c0.32,0.097,0.646,0.168,0.969,0.249c0.351,0.089,0.698,0.187,1.055,0.258
				c0.375,0.074,0.753,0.118,1.13,0.173c0.311,0.044,0.617,0.104,0.932,0.135c0.7,0.069,1.403,0.106,2.105,0.106h106.667
				c11.782,0,21.333-9.551,21.333-21.333c0-11.782-9.551-21.333-21.333-21.333H158.17l70.248-70.248
				c8.331-8.331,8.331-21.839,0-30.17s-21.839-8.331-30.17,0L128,353.83v-55.163c0-11.782-9.551-21.333-21.333-21.333
				c-11.782,0-21.333,9.551-21.333,21.333v106.667c0,0.007,0.001,0.015,0.001,0.022C85.335,406.051,85.371,406.746,85.44,407.438z"
				/>
		</g>
	</g>
</g>
<g>
</g>
<g>
</g>
<g>
</g>
<g>
</g>
<g>
</g>
<g>
</g>
<g>
</g>
<g>
</g>
<g>
</g>
<g>
</g>
<g>
</g>
<g>
</g>
<g>
</g>
<g>
</g>
<g>
</g>
</svg>
